<svg width="150" height="150" viewBox="0 0 150 150" fill="none" xmlns="http://www.w3.org/2000/svg">
<path d="M86.1111 48.913C86.1111 46.3333 86.7628 43.8115 87.9837 41.6665C89.2046 39.5215 90.9399 37.8497 92.9702 36.8624C95.0005 35.8752 97.2345 35.6169 99.3899 36.1202C101.545 36.6235 103.525 37.8658 105.079 39.6899C106.633 41.5141 107.691 43.8382 108.12 46.3684C108.549 48.8986 108.329 51.5212 107.488 53.9046C106.647 56.2879 105.222 58.3251 103.395 59.7583C101.568 61.1915 99.4198 61.9565 97.2222 61.9565C94.2754 61.9565 91.4492 60.5823 89.3655 58.1362C87.2817 55.69 86.1111 52.3724 86.1111 48.913ZM150 16.3043V133.696C150 138.02 148.537 142.167 145.932 145.225C143.327 148.282 139.795 150 136.111 150H13.8889C10.2053 150 6.67263 148.282 4.06796 145.225C1.46329 142.167 0 138.02 0 133.696V16.3043C0 11.9802 1.46329 7.83309 4.06796 4.77543C6.67263 1.71777 10.2053 0 13.8889 0H136.111C139.795 0 143.327 1.71777 145.932 4.77543C148.537 7.83309 150 11.9802 150 16.3043ZM16.6667 19.5652V84.5543L40.1806 56.9511C42.7851 53.8945 46.3172 52.1774 50 52.1774C53.6828 52.1774 57.2149 53.8945 59.8194 56.9511L88.4097 90.4891L100.34 76.4918C102.945 73.4353 106.477 71.7182 110.16 71.7182C113.843 71.7182 117.375 73.4353 119.979 76.4918L133.333 92.1929V19.5652H16.6667ZM16.6667 130.435H98.8472L50 73.0924L16.6667 112.223V130.435ZM133.333 130.435V119.837L110.16 92.6332L100.194 104.348L122.417 130.435H133.333Z" fill="#BDBDBD"/>
</svg>
