<svg xmlns="http://www.w3.org/2000/svg" width="248" height="102" viewBox="0 0 248 102" version="1.1"><path d="M 138.646 12.452 L 136 14.905 136 18.913 L 136 22.922 138.069 24.850 L 140.139 26.778 143.068 27.364 L 145.997 27.949 149.735 26.725 L 153.473 25.500 154.808 22.714 L 156.143 19.929 155.495 16.978 L 154.847 14.027 152.019 12.014 L 149.191 10 145.242 10 L 141.292 10 138.646 12.452 M 163.364 11.170 L 161.228 12.204 160.114 14.649 L 159 17.094 159 19.325 L 159 21.555 160.503 23.701 L 162.006 25.847 165.503 27.001 L 169 28.155 172.497 27.001 L 175.994 25.847 177.497 23.701 L 179 21.555 179 18.701 L 179 15.846 176.077 12.923 L 173.154 10 169.327 10.068 L 165.500 10.135 163.364 11.170 M 214 17.236 L 211.500 18.569 211.356 20.535 L 211.213 22.500 211.106 27.776 L 211 33.051 208.050 31.526 L 205.099 30 199.698 30 L 194.296 30 190.898 32.289 L 187.500 34.577 185 39.039 L 182.500 43.500 182.500 51.521 L 182.500 59.542 185.027 64.521 L 187.554 69.500 191.989 71.750 L 196.424 74 200 74 L 203.577 74 207.265 72.120 L 210.954 70.239 212.132 71.659 L 213.310 73.079 220.905 72.789 L 228.500 72.500 229.323 65.500 L 230.146 58.500 229.761 38.738 L 229.377 18.977 228.331 17.931 L 227.285 16.885 221.892 16.394 L 216.500 15.904 214 17.236 M 103.337 35.750 L 99.787 43.500 96.508 51.593 L 93.228 59.686 92.539 62.821 L 91.851 65.955 92.480 67.938 L 93.109 69.920 100.428 73.960 L 107.746 78 109.542 78 L 111.338 78 116.919 74.887 L 122.500 71.774 124.750 69.713 L 127 67.651 127 65.482 L 127 63.313 125.103 57.907 L 123.207 52.500 118.490 41.500 L 113.772 30.500 112.764 29.250 L 111.755 28 109.321 28 L 106.886 28 103.337 35.750 M 14.229 30.837 L 12.957 31.644 13.229 52.072 L 13.500 72.500 20.842 72.796 L 28.185 73.091 29.592 71.923 L 31 70.755 31 63.517 L 31 56.279 31.641 51.599 L 32.283 46.919 34.214 45.886 L 36.145 44.852 38.322 46.294 L 40.500 47.735 41.500 60.118 L 42.500 72.500 50.500 72.500 L 58.500 72.500 59.500 59.833 L 60.500 47.166 61 46.707 L 61.500 46.248 63.699 45.573 L 65.898 44.898 67.949 46.949 L 70 49 70 59.800 L 70 70.600 71.200 71.800 L 72.400 73 79.165 73 L 85.930 73 86.737 71.250 L 87.545 69.500 87.522 55.500 L 87.500 41.500 85.500 38.105 L 83.500 34.709 80.739 32.651 L 77.978 30.593 71.467 30.179 L 64.955 29.764 60.857 32.476 L 56.760 35.187 51.995 32.594 L 47.229 30 42.565 30 L 37.901 30 34.859 31.573 L 31.818 33.145 30.080 31.573 L 28.343 30 21.921 30.015 L 15.500 30.031 14.229 30.837 M 137.687 30.750 L 137.257 31.500 136.570 54 L 135.884 76.500 134.192 77.716 L 132.500 78.932 131.250 80.005 L 130 81.079 130 86.339 L 130 91.600 131.200 92.800 L 132.400 94 136.988 94 L 141.576 94 146.015 91.750 L 150.454 89.500 152.477 86 L 154.500 82.500 154.840 57.711 L 155.180 32.922 153.968 31.461 L 152.755 30 145.437 30 L 138.118 30 137.687 30.750 M 161.024 31.471 L 159.803 32.942 160.406 52.176 L 161.010 71.410 161.852 72.252 L 162.694 73.094 170.097 72.797 L 177.500 72.500 177.129 52 L 176.759 31.500 176.320 30.750 L 175.882 30 169.063 30 L 162.245 30 161.024 31.471 M 111 56.500 L 111 70 112.268 70 L 113.536 70 117.268 67.464 L 121 64.928 121 64.042 L 121 63.156 116.750 53.081 L 112.500 43.007 111.750 43.004 L 111 43 111 56.500 M 203.163 46.598 L 201 48.113 201 52.081 L 201 56.050 203.635 57.051 L 206.270 58.053 208.635 56.504 L 211 54.954 211 52.132 L 211 49.310 209.250 47.807 L 207.500 46.304 206.413 45.694 L 205.326 45.083 203.163 46.598" stroke="none" fill="#0c0c0c" fill-rule="evenodd"/></svg>